<mxfile host="www.draw.io" modified="2020-02-29T07:45:21.025Z" agent="Mozilla/5.0 (Windows NT 10.0; WOW64) AppleWebKit/537.36 (KHTML, like Gecko) Chrome/70.0.3538.25 Safari/537.36 Core/1.70.3719.400 QQBrowser/10.5.3715.400" etag="7EVe2jakCaOFiGTHnxzi" version="12.7.9" type="github">
  <diagram id="auExvunnDKqUpxhm3QKQ" name="第 1 页">
    <mxGraphModel dx="1381" dy="765" grid="1" gridSize="10" guides="1" tooltips="1" connect="1" arrows="1" fold="1" page="1" pageScale="1" pageWidth="1169" pageHeight="827" math="0" shadow="0">
      <root>
        <mxCell id="0" />
        <mxCell id="1" parent="0" />
        <mxCell id="qi-KX9kvTqXT_LseuW6y-12" value="" style="rounded=0;whiteSpace=wrap;html=1;fontSize=14;" vertex="1" parent="1">
          <mxGeometry x="70" y="70" width="90" height="440" as="geometry" />
        </mxCell>
        <mxCell id="qi-KX9kvTqXT_LseuW6y-13" value="int" style="rounded=0;whiteSpace=wrap;html=1;fontSize=14;" vertex="1" parent="1">
          <mxGeometry x="70" y="160" width="90" height="50" as="geometry" />
        </mxCell>
        <mxCell id="qi-KX9kvTqXT_LseuW6y-14" value="short" style="rounded=0;whiteSpace=wrap;html=1;fontSize=14;" vertex="1" parent="1">
          <mxGeometry x="70" y="210" width="90" height="50" as="geometry" />
        </mxCell>
        <mxCell id="qi-KX9kvTqXT_LseuW6y-15" value="reference" style="rounded=0;whiteSpace=wrap;html=1;fontSize=14;" vertex="1" parent="1">
          <mxGeometry x="70" y="260" width="90" height="50" as="geometry" />
        </mxCell>
        <mxCell id="qi-KX9kvTqXT_LseuW6y-16" value="double" style="rounded=0;whiteSpace=wrap;html=1;fontSize=14;" vertex="1" parent="1">
          <mxGeometry x="70" y="310" width="90" height="50" as="geometry" />
        </mxCell>
        <mxCell id="qi-KX9kvTqXT_LseuW6y-17" value="float" style="rounded=0;whiteSpace=wrap;html=1;fontSize=14;" vertex="1" parent="1">
          <mxGeometry x="70" y="360" width="90" height="50" as="geometry" />
        </mxCell>
        <mxCell id="qi-KX9kvTqXT_LseuW6y-18" value="" style="rounded=0;whiteSpace=wrap;html=1;fontSize=14;" vertex="1" parent="1">
          <mxGeometry x="70" y="410" width="90" height="60" as="geometry" />
        </mxCell>
        <mxCell id="qi-KX9kvTqXT_LseuW6y-19" value="Java栈本地变量表" style="rounded=0;whiteSpace=wrap;html=1;fontSize=14;" vertex="1" parent="1">
          <mxGeometry x="70" y="70" width="90" height="90" as="geometry" />
        </mxCell>
      </root>
    </mxGraphModel>
  </diagram>
</mxfile>
